<svg xmlns="http://www.w3.org/2000/svg" viewBox="0 0 1024 1024"><defs><style>.cls-1{fill:#448aff;}.cls-2{fill:#fff;opacity:0.4;}</style></defs><title>Asset 4</title><g id="Layer_2" data-name="Layer 2"><g id="Layer_1-2" data-name="Layer 1"><rect class="cls-1" width="1024" height="1024"/><path class="cls-2" d="M360.46,348.88h0A303.09,303.09,0,0,1,663.54,652v0a0,0,0,0,1,0,0h0A303.09,303.09,0,0,1,360.46,348.88v0A0,0,0,0,1,360.46,348.88Z" transform="translate(503.81 -215.47) rotate(45)"/><path class="cls-2" d="M842.43,649A302.83,302.83,0,0,1,512,714.74,303.38,303.38,0,0,1,842.43,649Z"/><path class="cls-2" d="M413.36,648.83A302,302,0,0,1,512,714.74,303.48,303.48,0,0,1,181.57,649a304,304,0,0,1,231.79-.19Z"/><path class="cls-2" d="M512,411.65h0A303.09,303.09,0,0,1,815.09,714.74v0a0,0,0,0,1,0,0h0A303.09,303.09,0,0,1,512,411.65v0A0,0,0,0,1,512,411.65Z" transform="translate(1226.74 -100.35) rotate(90)"/><path class="cls-2" d="M628.38,737.89A302.49,302.49,0,0,1,512,714.74,302.22,302.22,0,0,1,628.38,737.89Z"/><path class="cls-2" d="M395.62,737.89A302.22,302.22,0,0,1,512,714.74,302.49,302.49,0,0,1,395.62,737.89Z"/><path class="cls-2" d="M208.91,411.65h0A303.09,303.09,0,0,1,512,714.74v0a0,0,0,0,1,0,0h0A303.09,303.09,0,0,1,208.91,411.65v0A0,0,0,0,1,208.91,411.65Z"/><path class="cls-2" d="M278.44,365.19h0A303.09,303.09,0,0,1,581.53,668.28v0a0,0,0,0,1,0,0h0A303.09,303.09,0,0,1,278.44,365.19v0a0,0,0,0,1,0,0Z" transform="translate(230.48 -125.21) rotate(22.5)"/><path class="cls-2" d="M908,550.71a302.83,302.83,0,0,1-396,164,302.83,302.83,0,0,1,396-164Z"/><path class="cls-2" d="M395.62,691.59A301.94,301.94,0,0,1,512,714.74a302.06,302.06,0,0,1-232,0A303.58,303.58,0,0,1,395.62,691.59Z"/><path class="cls-2" d="M442.47,365.19h0A303.09,303.09,0,0,1,745.56,668.28v0a0,0,0,0,1,0,0h0A303.09,303.09,0,0,1,442.47,365.19v0A0,0,0,0,1,442.47,365.19Z" transform="translate(844.1 -229.81) rotate(67.5)"/><path class="cls-2" d="M744,714.73a302.06,302.06,0,0,1-232,0,302.18,302.18,0,0,1,232,0Z"/><path class="cls-2" d="M512,714.74a302.83,302.83,0,0,1-396-164,302.83,302.83,0,0,1,396,164Z"/></g></g></svg>