<?xml version="1.0" encoding="UTF-8" standalone="no"?>
<svg
   xmlns:dc="http://purl.org/dc/elements/1.1/"
   xmlns:cc="http://creativecommons.org/ns#"
   xmlns:rdf="http://www.w3.org/1999/02/22-rdf-syntax-ns#"
   xmlns:svg="http://www.w3.org/2000/svg"
   xmlns="http://www.w3.org/2000/svg"
   xmlns:sodipodi="http://sodipodi.sourceforge.net/DTD/sodipodi-0.dtd"
   xmlns:inkscape="http://www.inkscape.org/namespaces/inkscape"
   id="svg"
   version="1.1"
   width="400"
   height="270"
   viewBox="0 0 400 400"
   sodipodi:docname="sadcloud.svg"
   inkscape:version="0.92.3 (2405546, 2018-03-11)">
  <metadata
     id="metadata10">
    <rdf:RDF>
      <cc:Work
         rdf:about="">
        <dc:format>image/svg+xml</dc:format>
        <dc:type
           rdf:resource="http://purl.org/dc/dcmitype/StillImage" />
        <dc:title />
      </cc:Work>
    </rdf:RDF>
  </metadata>
  <defs
     id="defs8" />
  <sodipodi:namedview
     pagecolor="#ffffff"
     bordercolor="#666666"
     borderopacity="1"
     objecttolerance="10"
     gridtolerance="10"
     guidetolerance="10"
     inkscape:pageopacity="0"
     inkscape:pageshadow="2"
     inkscape:window-width="1920"
     inkscape:window-height="1001"
     id="namedview6"
     showgrid="false"
     inkscape:zoom="1.668772"
     inkscape:cx="47.061089"
     inkscape:cy="207.02454"
     inkscape:window-x="-9"
     inkscape:window-y="-9"
     inkscape:window-maximized="1"
     inkscape:current-layer="svgg" />
  <g
     id="svgg">
    <path
       id="path0"
       d="m 239.01685,22.769068 c -53.67175,2.43745 -101.2506,32.26685 -127.2346,79.773192 l -2.41135,4.4109 -2.69265,-1.62835 c -49.990195,-30.215092 -115.0009409,1.7458 -121.781141,59.86905 -0.232,1.99375 -0.44805,3.6482 -0.47995,3.67575 -0.03045,0.0276 -1.87485,0.7917 -4.0977,1.6994 -52.3363,21.35995 -80.731649,80.504 -64.4496,134.2352 13.61695,44.93695 52.8525,76.3425 99.35545,79.5296 10.9098,0.7482 377.097141,0.2958 382.070641,-0.4727 61.0798,-9.425 99.96155,-65.0093 86.90285,-124.236 -8.8943,-40.34045 -42.79385,-72.0302 -84.10435,-78.6219 l -3.6975,-0.59015 -0.1943,-8.87835 C 394.3394,86.341418 323.13425,18.951218 239.01685,22.769068 M 135.8856,178.30766 c 9.84405,2.4505 16.9621,11.7798 16.9621,22.22995 0,21.53105 -27.58625,31.1663 -40.8494,14.268 -13.618395,-17.3507 2.41135,-41.84265 23.8873,-36.49795 m 138.1125,0 c 9.62945,2.39685 16.90845,11.85085 16.9766,22.0487 0.1392,20.7959 -25.9695,31.0909 -39.80975,15.6977 -15.3294,-17.05055 0.5452,-43.2941 22.83315,-37.7464 m -56.5239,80.91145 c 31.7231,4.34275 61.90485,18.80505 86.43305,41.41925 8.4564,7.7952 9.95715,10.0282 9.9586,14.81175 0.003,11.5652 -12.22495,15.5005 -20.8365,6.7048 -52.80175,-53.92985 -133.6668,-54.3663 -186.99055,-1.0092 -8.086645,8.091 -16.466195,7.92715 -20.717595,-0.40745 -3.63515,-7.12675 -0.56985,-12.5164 14.123,-24.82545 34.378045,-28.80135 77.574995,-42.2298 118.029995,-36.6937"
       style="fill:#b3b3b3;fill-rule:evenodd;stroke:none;stroke-width:1.45000005"
       inkscape:connector-curvature="0" />
    <path
       style="fill:#4d4d4d;fill-opacity:1;stroke:none;stroke-width:0.257;stroke-miterlimit:4;stroke-dasharray:none;stroke-opacity:0.70982139"
       d="m 149.56695,150.15629 c -5.67828,-0.88914 -10.55228,-5.88427 -11.79902,-12.09223 -0.91852,-4.57365 0.45092,-9.13813 3.85344,-12.84394 3.14005,-3.41993 6.35163,-4.92679 10.53691,-4.94387 4.4245,-0.018 7.42129,0.99474 10.34273,3.49538 6.39451,5.47346 7.14469,15.39649 1.61732,21.39298 -3.96112,4.29731 -8.66999,5.91263 -14.55138,4.99168 z"
       id="path1920"
       inkscape:connector-curvature="0"
       transform="matrix(1.4814815,0,0,1.4814815,-96.296296,0)" />
    <path
       style="fill:#4d4d4d;fill-opacity:1;stroke:none;stroke-width:0.25707525;stroke-miterlimit:4;stroke-dasharray:none;stroke-opacity:0.70982139"
       d="m 243.61236,150.42905 c -5.60495,-1.31835 -9.26166,-4.15251 -11.47379,-8.89283 -3.57354,-7.65764 0.3864,-17.31606 8.34584,-20.3558 4.16254,-1.58969 9.65082,-1.08765 13.40148,1.22591 3.41098,2.10401 6.55306,6.85421 7.14505,10.80185 0.53507,3.56814 -0.70413,8.22605 -2.98356,11.21458 -2.98018,3.90727 -10.33978,6.96954 -14.43502,6.00629 z"
       id="path1922"
       inkscape:connector-curvature="0"
       transform="matrix(1.4814815,0,0,1.4814815,-96.296296,0)" />
    <path
       style="fill:#4d4d4d;fill-opacity:1;stroke:none;stroke-width:0.25707525;stroke-miterlimit:4;stroke-dasharray:none;stroke-opacity:0.70982139"
       d="m 124.71992,218.79483 c -1.06945,-0.89988 -2.1045,-2.55238 -2.48592,-3.96888 -0.97719,-3.62901 0.93153,-6.84574 7.50808,-12.65324 25.91784,-22.887 58.93041,-32.30645 89.69376,-25.59225 14.57859,3.18182 29.74557,10.14598 41.55457,19.08043 5.19463,3.93015 12.10616,10.14012 13.89298,12.48278 2.67752,3.5104 1.7925,9.53542 -1.66314,11.32241 -4.08509,2.11248 -7.1556,0.86312 -14.17536,-5.7678 -8.80903,-8.32109 -20.90191,-15.49968 -32.72412,-19.42573 -8.69738,-2.88833 -14.5404,-3.95166 -23.75655,-4.32328 -23.4848,-0.94698 -46.0163,7.75307 -64.10969,24.75456 -6.36911,5.98474 -10.14678,7.10996 -13.73461,4.091 z"
       id="path1924"
       inkscape:connector-curvature="0"
       transform="matrix(1.4814815,0,0,1.4814815,-96.296296,0)" />
  </g>
</svg>
