<?xml version="1.0" encoding="UTF-8" standalone="no"?>
<svg
   xmlns:dc="http://purl.org/dc/elements/1.1/"
   xmlns:cc="http://creativecommons.org/ns#"
   xmlns:rdf="http://www.w3.org/1999/02/22-rdf-syntax-ns#"
   xmlns:svg="http://www.w3.org/2000/svg"
   xmlns="http://www.w3.org/2000/svg"
   xmlns:sodipodi="http://sodipodi.sourceforge.net/DTD/sodipodi-0.dtd"
   xmlns:inkscape="http://www.inkscape.org/namespaces/inkscape"
   version="1.0"
   width="512px"
   height="512px"
   viewBox="0 0 5120 5120"
   preserveAspectRatio="xMidYMid meet"
   id="svg167"
   sodipodi:docname="logo.svg"
   inkscape:export-filename="C:\Users\varun\Downloads\logo.png"
   inkscape:export-xdpi="96"
   inkscape:export-ydpi="96"
   inkscape:version="0.92.3 (2405546, 2018-03-11)">
  <metadata
     id="metadata173">
    <rdf:RDF>
      <cc:Work
         rdf:about="">
        <dc:format>image/svg+xml</dc:format>
        <dc:type
           rdf:resource="http://purl.org/dc/dcmitype/StillImage" />
        <dc:title></dc:title>
      </cc:Work>
    </rdf:RDF>
  </metadata>
  <defs
     id="defs171" />
  <sodipodi:namedview
     pagecolor="#ffffff"
     bordercolor="#666666"
     borderopacity="1"
     objecttolerance="10"
     gridtolerance="10"
     guidetolerance="10"
     inkscape:pageopacity="0"
     inkscape:pageshadow="2"
     inkscape:window-width="1920"
     inkscape:window-height="1001"
     id="namedview169"
     showgrid="false"
     inkscape:zoom="2.6074563"
     inkscape:cx="303.58916"
     inkscape:cy="86.121471"
     inkscape:window-x="-9"
     inkscape:window-y="-9"
     inkscape:window-maximized="1"
     inkscape:current-layer="svg167"
     showguides="false" />
  <g
     id="layer101"
     fill="#40008c"
     stroke="none"
     style="fill:#570f96;fill-opacity:1">
    <path
       d="M 0.67796609,4544.5167 0.44532487,519.96991 C 0.34365747,238.6045 285.88633,0.56242101 546.0656,0.23264121 L 4644.4494,0.33898304 C 4907.8468,5.7071948 5125.1523,251.62863 5120.2808,473.23585 l -0.1944,4082.18075 c 0.1135,243.0074 -312.5789,565.7245 -542.8885,563.8655 -1435.6669,0.3992 -2567.2328,0.81 -4002.22143,0.4822 C 315.80312,5121.0885 2.8814041,4817.3845 0.67796609,4544.5167 Z"
       id="path2"
       inkscape:connector-curvature="0"
       sodipodi:nodetypes="ccccccccc"
       inkscape:export-xdpi="96"
       inkscape:export-ydpi="96"
       style="fill:#570f96;fill-opacity:1" />
  </g>
  <g
     id="layer106"
     fill="#ac7fcd"
     stroke="none">
    <path
       d="m 1615,3477 c -96,-30 -232,-105 -342,-189 -132,-100 -269,-286 -330,-448 -44.88852,-140.585 -84.19179,-282.6721 -119,-426 l 110,-28 c 61,-16 129,-34 151,-41 112,-35 211,-52 324,-54 29.1648,-3.397 27.7267,-4.397 28,-38 -3,-21 2,-78 10,-128 15,-93 100,-425 111,-437 192.2781,32.4676 381.8507,85.8589 533,162 l 57,29 53,-82 c 33,-51 110,-139 204,-236 l 151,-154 154,157 c 85,86 179,192 209,236 l 54,79 c 66.6118,-32.1721 131.8699,-69.1532 202,-93 126,-40 386,-109 390,-104 2,3 36,136 75,288 30,122 49,247 43,285 -5,32 -3,35 18,35 89,1 241,27 404,71 104,28 192,52 194,54 -5.5636,39.4305 -22.4828,80.7605 -33,118 -100,366 -127,426 -269,609 -67,87 -215,210 -307,255 -49.3348,27.3815 -105.6303,51.9663 -150,71 -266.4331,93.8682 -545.4301,64.373 -740,11 -227,-62 -233,-63 -302,-46 -347.6636,86.2989 -566.0749,141.3254 -883,44 z"
       id="path121"
       inkscape:connector-curvature="0"
       sodipodi:nodetypes="cccccccccccccccccccccccccccccccc" />
  </g>
  <g
     id="layer108"
     stroke="none"
     fill="#dbc5ea">
    <path
       d="M2355 3364 c-142 -39 -229 -69 -301 -104 -274 -133 -472 -361 -569 -655 -27 -83 -63 -300 -52 -311 12 -12 206 16 296 42 47 14 129 47 182 73 l96 49 6 -112 c7 -131 41 -271 94 -387 19 -43 39 -79 42 -79 20 0 129 86 207 164 75 75 171 199 198 259 5 9 7 9 12 0 27 -60 123 -184 198 -259 81 -81 200 -174 210 -163 2 2 15 27 29 54 62 125 107 315 107 452 l0 74 73 -40 c104 -57 265 -108 391 -122 58 -7 108 -10 112 -7 9 10 -14 175 -36 260 -45 173 -141 345 -265 477 -157 166 -317 253 -610 331 -104 28 -197 53 -205 55 -8 2 -105 -21 -215 -51z"
       id="path161" />
  </g>
  <g
     id="layer109"
     fill="#efe3f7"
     stroke="none">
    <path
       d="M2403 3258 c-83 -84 -171 -181 -195 -215 -60 -83 -121 -210 -153 -318 -28 -97 -52 -241 -42 -251 4 -4 23 6 44 21 152 114 258 239 336 395 l52 105 1 -175 c1 -154 4 -186 26 -270 14 -52 40 -127 58 -165 l32 -70 24 54 c70 157 98 304 92 494 l-3 134 41 -86 c52 -109 121 -208 204 -292 74 -74 177 -155 187 -145 10 10 -18 175 -44 261 -64 203 -129 303 -336 513 -88 89 -163 162 -166 162 -4 0 -74 -69 -158 -152z"
       id="path164" />
  </g>
</svg>
