<?xml version="1.0" encoding="UTF-8" standalone="no"?>
<svg
   xmlns:dc="http://purl.org/dc/elements/1.1/"
   xmlns:cc="http://creativecommons.org/ns#"
   xmlns:rdf="http://www.w3.org/1999/02/22-rdf-syntax-ns#"
   xmlns:svg="http://www.w3.org/2000/svg"
   xmlns="http://www.w3.org/2000/svg"
   xmlns:sodipodi="http://sodipodi.sourceforge.net/DTD/sodipodi-0.dtd"
   xmlns:inkscape="http://www.inkscape.org/namespaces/inkscape"
   viewBox="0 0 1024 1024"
   version="1.1"
   id="svg38"
   sodipodi:docname="logo.svg"
   inkscape:version="0.92.3 (2405546, 2018-03-11)">
  <metadata
     id="metadata42">
    <rdf:RDF>
      <cc:Work
         rdf:about="">
        <dc:format>image/svg+xml</dc:format>
        <dc:type
           rdf:resource="http://purl.org/dc/dcmitype/StillImage" />
        <dc:title>Asset 4</dc:title>
      </cc:Work>
    </rdf:RDF>
  </metadata>
  <sodipodi:namedview
     pagecolor="#ffffff"
     bordercolor="#666666"
     borderopacity="1"
     objecttolerance="10"
     gridtolerance="10"
     guidetolerance="10"
     inkscape:pageopacity="0"
     inkscape:pageshadow="2"
     inkscape:window-width="1920"
     inkscape:window-height="1001"
     id="namedview40"
     showgrid="false"
     inkscape:zoom="0.4609375"
     inkscape:cx="1.0764705"
     inkscape:cy="492.50693"
     inkscape:window-x="-9"
     inkscape:window-y="-9"
     inkscape:window-maximized="1"
     inkscape:current-layer="svg38" />
  <defs
     id="defs4">
    <style
       id="style2">.cls-1{fill:#0071bc;}.cls-2{fill:#fff;opacity:0.4;}</style>
  </defs>
  <title
     id="title6">Asset 4</title>
  <g
     id="Layer_2"
     data-name="Layer 2">
    <g
       id="Layer_1-2"
       data-name="Layer 1">
      <rect
         class="cls-1"
         width="1024"
         height="1024"
         id="rect8"
         ry="158.37288"
         x="0"
         y="0"
         style="fill:#0071bc" />
      <path
         class="cls-2"
         d="M360.46,348.88h0A303.09,303.09,0,0,1,663.54,652v0a0,0,0,0,1,0,0h0A303.09,303.09,0,0,1,360.46,348.88v0a0,0,0,0,1,0,0Z"
         transform="translate(503.81 -215.47) rotate(45)"
         id="path10" />
      <path
         class="cls-2"
         d="M842.43,649A302.83,302.83,0,0,1,512,714.74,303.38,303.38,0,0,1,842.43,649Z"
         id="path12" />
      <path
         class="cls-2"
         d="M413.36,648.83A302,302,0,0,1,512,714.74,303.48,303.48,0,0,1,181.57,649a304,304,0,0,1,231.79-.19Z"
         id="path14" />
      <path
         class="cls-2"
         d="M512,411.65h0A303.09,303.09,0,0,1,815.09,714.74v0a0,0,0,0,1,0,0h0A303.09,303.09,0,0,1,512,411.65v0A0,0,0,0,1,512,411.65Z"
         transform="translate(1226.74 -100.35) rotate(90)"
         id="path16" />
      <path
         class="cls-2"
         d="M628.38,737.89A302.49,302.49,0,0,1,512,714.74,302.22,302.22,0,0,1,628.38,737.89Z"
         id="path18" />
      <path
         class="cls-2"
         d="M395.62,737.89A302.22,302.22,0,0,1,512,714.74,302.49,302.49,0,0,1,395.62,737.89Z"
         id="path20" />
      <path
         class="cls-2"
         d="M208.91,411.65h0A303.09,303.09,0,0,1,512,714.74v0a0,0,0,0,1,0,0h0A303.09,303.09,0,0,1,208.91,411.65v0A0,0,0,0,1,208.91,411.65Z"
         id="path22" />
      <path
         class="cls-2"
         d="M278.44,365.19h0A303.09,303.09,0,0,1,581.53,668.28v0a0,0,0,0,1,0,0h0A303.09,303.09,0,0,1,278.44,365.19v0a0,0,0,0,1,0,0Z"
         transform="translate(230.48 -125.21) rotate(22.5)"
         id="path24" />
      <path
         class="cls-2"
         d="M908,550.71a302.83,302.83,0,0,1-396,164,302.83,302.83,0,0,1,396-164Z"
         id="path26" />
      <path
         class="cls-2"
         d="M395.62,691.59A301.94,301.94,0,0,1,512,714.74a302.06,302.06,0,0,1-232,0A303.58,303.58,0,0,1,395.62,691.59Z"
         id="path28" />
      <path
         class="cls-2"
         d="M442.47,365.19h0A303.09,303.09,0,0,1,745.56,668.28v0a0,0,0,0,1,0,0h0A303.09,303.09,0,0,1,442.47,365.19v0a0,0,0,0,1,0,0Z"
         transform="translate(844.1 -229.81) rotate(67.5)"
         id="path30" />
      <path
         class="cls-2"
         d="M744,714.73a302.06,302.06,0,0,1-232,0,302.18,302.18,0,0,1,232,0Z"
         id="path32" />
      <path
         class="cls-2"
         d="M512,714.74a302.83,302.83,0,0,1-396-164,302.83,302.83,0,0,1,396,164Z"
         id="path34" />
    </g>
  </g>
</svg>
