<svg>
 <path xmlns="http://www.w3.org/2000/svg" d="m540.81 298.34-87.141-87.141c-12.785-12.785-34.098-12.785-46.883 0l-33.625 33.625c-2.8398 2.8398-4.2617 6.1562-4.2617 9.9453s1.4219 7.5781 4.2617 9.9453l6.6289 6.6289-32.676 32.676h-47.359c-3.7891 0-7.5781 1.4219-9.9453 4.2617l-33.625 33.625c-5.6836 5.6836-5.6836 14.68 0 19.891l56.828 56.828-107.03 107.5c-5.6836 5.6836-5.6836 14.68 0 19.891 2.8398 2.8398 6.6289 4.2617 9.9453 4.2617 3.3164 0 7.1055-1.4219 9.9453-4.2617l107.03-107.03 56.828 56.828c2.8398 2.8398 6.1562 4.2617 9.9453 4.2617 3.7891 0 7.5781-1.4219 9.9453-4.2617l33.625-33.625c2.8398-2.8398 4.2617-6.1562 4.2617-9.9453l0.003907-47.355 32.676-32.676 6.6289 6.6289c2.8398 2.8398 6.1562 4.2617 9.9453 4.2617 3.7891 0 7.5781-1.4219 9.9453-4.2617l33.625-33.625c13.262-12.785 13.262-34.098 0.47656-46.883zm-117.45 90.453c-2.8398 2.8398-4.2617 6.1562-4.2617 9.9453v47.832l-18.945 19.414-113.66-113.66 19.418-19.418h47.832c3.7891 0 7.5781-1.4219 9.9453-4.2617l36.938-36.938 60.145 60.145zm97.086-63.461-23.68 23.207-93.297-93.77 23.207-23.207c1.8945-1.8945 4.7344-1.8945 6.6289 0l87.141 87.141c1.8945 1.418 1.8945 4.7344 0 6.6289z"/>
</svg>