<?xml version="1.0" encoding="UTF-8" standalone="no"?>
<svg
   xmlns:dc="http://purl.org/dc/elements/1.1/"
   xmlns:cc="http://creativecommons.org/ns#"
   xmlns:rdf="http://www.w3.org/1999/02/22-rdf-syntax-ns#"
   xmlns:svg="http://www.w3.org/2000/svg"
   xmlns="http://www.w3.org/2000/svg"
   id="svg26"
   xml:space="preserve"
   enable-background="new 0 0 1000 1000"
   viewBox="0 0 1000 1000"
   width="200"
   height="150"
   y="0px"
   x="0px"
   version="1.1"><defs
   id="defs30" />
<metadata
   id="metadata2"> Svg Vector Icons : http://www.onlinewebfonts.com/icon <rdf:RDF><cc:Work
     rdf:about=""><dc:format>image/svg+xml</dc:format><dc:type
       rdf:resource="http://purl.org/dc/dcmitype/StillImage" /><dc:title></dc:title></cc:Work></rdf:RDF></metadata>
<g
   transform="matrix(1.3098665,0,0,1.3022647,-155.64098,-146.54403)"
   style="fill:#b3b3b3"
   id="g24"><g
     style="fill:#b3b3b3"
     id="g22"
     transform="matrix(0.1,0,0,-0.1,0,511)"><path
       style="fill:#b3b3b3"
       id="path4"
       d="m 3701.8,3867.8 c -51.7,-58.2 -53.9,-810.6 -2.2,-883.9 43.1,-62.5 163.9,-64.7 224.2,-4.3 41,41 43.1,71.1 43.1,437.6 0,454.9 -10.8,489.4 -148.8,489.4 -51.6,0 -94.8,-15.1 -116.3,-38.8 z" /><path
       style="fill:#b3b3b3"
       id="path6"
       d="m 2731.6,3324.5 c -30.2,-23.7 -62.5,-62.5 -69,-86.2 -17.2,-56.1 163.9,-439.8 222.1,-472.1 103.5,-56.1 219.9,8.6 219.9,120.7 0,94.9 -168.2,429 -230.7,457 -69,32.4 -77.6,30.2 -142.3,-19.4 z" /><path
       style="fill:#b3b3b3"
       id="path8"
       d="m 4743.1,3339.6 c -36.7,-17.3 -79.8,-90.6 -146.6,-235 -84.1,-191.9 -90.6,-215.6 -64.7,-269.5 36.6,-75.5 125,-109.9 200.5,-75.5 64.7,30.2 226.4,355.7 226.4,454.9 0,103.6 -120.8,172.5 -215.6,125.1 z" /><path
       style="fill:#b3b3b3"
       id="path10"
       d="m 1692.5,2968.8 c -84.1,-84.1 -69,-142.3 71.1,-276 222.1,-211.3 446.3,-407.5 489.4,-429 101.3,-45.3 226.4,69 198.3,181.1 -12.9,45.3 -485.1,491.5 -584.3,549.8 -68.9,40.9 -116.3,32.3 -174.5,-25.9 z" /><path
       style="fill:#b3b3b3"
       id="path12"
       d="m 5665.8,2921.4 c -437.7,-385.9 -491.5,-442 -491.5,-513.1 0,-84.1 62.5,-146.6 150.9,-146.6 64.7,0 215.6,120.7 536.8,431.2 122.9,118.6 135.8,138 122.9,194 -17.3,75.5 -86.2,135.8 -155.2,135.8 -30.2,0 -97.1,-41 -163.9,-101.3 z" /><path
       style="fill:#b3b3b3"
       id="path14"
       d="M 3507.7,2686.4 C 3180,2628.2 2852.3,2453.6 2617.3,2214.3 2071.9,1658.1 1981.3,802.2 2399.6,148.9 c 43.1,-66.8 79.8,-129.4 79.8,-133.7 0,-6.5 -38.8,-10.8 -84.1,-10.8 -133.7,0 -355.7,-79.8 -478.6,-172.5 -138,-103.5 -239.3,-226.4 -321.2,-390.2 L 1532.9,-679 1410,-694.1 C 827.9,-763.1 291.1,-1235.2 140.2,-1817.3 54,-2140.7 110,-2574 273.9,-2895.3 394.6,-3126 690,-3412.7 929.3,-3527 c 349.2,-170.3 53.9,-159.6 4072.5,-159.6 4020.8,0 3723.3,-10.8 4074.7,159.6 148.8,71.1 217.7,122.9 379.4,284.6 161.7,161.7 213.4,230.7 284.6,379.4 114.3,235 159.6,433.3 159.6,689.9 -2.2,239.3 -41,403.2 -144.5,614.4 -116.4,241.5 -263,403.2 -556.2,625.2 l -58.2,43.1 32.3,129.4 c 77.6,306.1 62.5,724.4 -36.7,1088.7 C 8843.6,1412.2 7724.7,2162.5 6623,2018 c -127.2,-15.1 -278.1,-43.1 -334.2,-60.4 -56.1,-17.3 -101.3,-21.6 -101.3,-10.8 0,41 -88.4,105.6 -144.5,105.6 -84.1,0 -396.7,-125 -442,-176.8 -45.3,-49.6 -51.7,-146.6 -12.9,-185.4 12.9,-12.9 21.6,-28 15.1,-32.3 -81.9,-66.8 -172.5,-127.2 -178.9,-120.7 -4.3,4.3 -34.5,71.1 -66.9,148.8 -81.9,194 -217.7,398.8 -366.5,545.4 -396.6,396.8 -922.6,556.3 -1483.2,455 z m 595.1,-299.7 c 463.5,-97 877.5,-489.4 1015.4,-955.1 32.3,-112.1 32.3,-118.6 -12.9,-178.9 -32.3,-43.1 -58.2,-58.2 -81.9,-49.6 -299.7,131.5 -370.8,146.6 -689.9,146.6 -282.4,0 -329.8,-4.3 -487.2,-58.2 -448.4,-148.8 -853.7,-567 -970.2,-1000.4 l -36.6,-138 -49.6,47.4 c -88.4,81.9 -226.4,312.6 -280.3,467.8 -110,321.2 -84.1,651.1 81.9,993.9 263,547.7 903.3,853.9 1511.3,724.5 z m 3216.6,-694.2 c 750.3,-166 1362.5,-767.5 1541.5,-1517.8 79.8,-340.6 77.6,-713.6 -10.8,-1026.2 -43.1,-148.8 -19.4,-196.2 146.6,-291 267.3,-153.1 487.2,-442 564.9,-741.6 41,-161.7 41,-437.7 0,-599.4 -81.9,-310.4 -314.8,-610.1 -590.7,-754.6 -291.1,-153.1 -15.1,-142.3 -3969,-142.3 -3953.9,0 -3678,-10.8 -3969,142.3 -276,144.5 -508.8,444.1 -590.7,754.6 -41,161.7 -41,437.7 0,601.5 97,379.4 377.3,694.2 733,827.9 64.7,23.7 207,56 316.9,69 109.9,12.9 215.6,38.8 235,56.1 21.6,17.2 47.4,73.3 60.4,122.9 30.2,122.9 142.3,286.7 256.5,373 224.2,170.3 558.4,178.9 793.4,19.4 99.2,-66.8 187.6,-71.1 245.8,-12.9 36.7,36.7 43.1,71.1 43.1,254.4 0,370.8 105.6,633.8 353.6,877.5 388.1,383.7 920.6,459.2 1414.3,202.7 120.7,-62.5 187.6,-84.1 224.2,-75.5 25.9,6.5 103.5,77.6 172.5,157.4 497.8,599.1 1278.2,868.6 2028.5,702.6 z" /><path
       style="fill:#b3b3b3"
       id="path16"
       d="m 1487.7,2009.4 c -58.2,-58.2 -56.1,-153.1 6.5,-209.1 25.9,-23.7 129.4,-73.3 230.7,-112.1 200.5,-75.5 273.8,-71.2 321.2,17.2 64.7,120.7 10.8,185.4 -232.8,280.3 -207.1,77.6 -267.4,81.9 -325.6,23.7 z" /><path
       style="fill:#b3b3b3"
       id="path18"
       d="m 985.3,1151.4 c -19.4,-21.6 -36.7,-69 -36.7,-103.5 0,-142.3 56.1,-159.5 482.9,-159.5 390.2,0 448.4,12.9 489.4,112.1 21.6,53.9 19.4,71.1 -17.3,120.7 l -43.1,58.2 -420.4,6.5 c -385.8,4.3 -422.4,2.1 -454.8,-34.5 z" /><path
       style="fill:#b3b3b3"
       id="path20"
       d="m 1681.7,379.6 c -101.3,-41 -196.2,-88.4 -209.1,-110 -66.8,-90.5 0,-243.6 107.8,-243.6 25.9,0 125,30.2 219.9,66.8 258.7,101.4 327.7,200.5 215.6,310.5 -66.9,69 -112.2,66.8 -334.2,-23.7 z" /></g></g>
</svg>